<?xml version="1.0" standalone="no"?>
<!DOCTYPE svg PUBLIC "-//W3C//DTD SVG 20010904//EN"
 "http://www.w3.org/TR/2001/REC-SVG-20010904/DTD/svg10.dtd">
<svg version="1.0" xmlns="http://www.w3.org/2000/svg"
 width="64.000000pt" height="64.000000pt" viewBox="0 0 64.000000 64.000000"
 preserveAspectRatio="xMidYMid meet">

<g transform="translate(0.000000,64.000000) scale(0.100000,-0.100000)"
fill="#FFFFFF" stroke="none">
<path d="M95 611 c-11 -5 -31 -21 -45 -36 l-25 -27 0 -229 0 -229 33 -32 32
-33 230 0 230 0 32 33 33 32 0 230 0 230 -33 32 -32 33 -218 2 c-119 1 -226
-2 -237 -6z m460 -56 c25 -24 25 -24 25 -235 0 -282 22 -260 -260 -260 -282 0
-260 -22 -260 260 0 211 0 211 25 235 24 25 24 25 235 25 211 0 211 0 235 -25z"/>
<path d="M330 399 l-144 -70 -42 14 c-60 20 -69 8 -28 -36 42 -44 84 -49 164
-17 l50 20 -4 -23 c-3 -12 -8 -52 -11 -90 l-7 -67 24 10 c18 9 31 34 57 114
l34 102 55 30 c64 33 85 59 62 74 -30 19 -67 8 -210 -61z"/>
<path d="M197 449 c-17 -10 -16 -13 14 -35 18 -13 39 -24 45 -24 18 0 64 22
64 30 0 5 -88 41 -100 40 -3 0 -13 -5 -23 -11z"/>
</g>
</svg>
