<svg id="svg" xmlns="http://www.w3.org/2000/svg" xmlns:xlink="http://www.w3.org/1999/xlink" width="400" height="128.125" viewBox="0, 0, 400,128.125"><g id="svgg"><path id="path0" d="M156.445 0.774 C 152.040 1.540,151.592 1.644,146.376 3.107 C 143.593 3.888,140.549 5.018,139.050 5.828 C 138.720 6.005,137.847 6.283,137.109 6.445 C 136.372 6.607,135.498 6.887,135.169 7.066 C 134.840 7.245,132.373 8.264,129.688 9.331 C 125.188 11.119,115.640 15.278,106.055 19.625 C 98.195 23.190,77.804 32.973,57.087 43.118 C 45.409 48.837,35.442 53.516,34.938 53.516 C 33.776 53.516,30.978 52.756,25.781 51.030 C 23.525 50.280,19.219 48.850,16.211 47.851 C 4.564 43.982,3.047 43.768,1.095 45.720 C -1.946 48.761,3.153 56.436,15.129 66.847 C 27.025 77.188,42.869 78.761,61.719 71.472 C 64.619 70.351,67.783 69.176,68.750 68.863 C 69.717 68.549,71.826 67.711,73.438 67.000 C 75.049 66.290,77.244 65.501,78.315 65.247 C 79.386 64.993,80.451 64.630,80.680 64.440 C 81.445 63.805,89.815 60.966,90.007 61.276 C 90.111 61.444,89.233 72.379,88.057 85.576 C 84.338 127.286,84.404 126.201,85.518 127.315 C 86.894 128.691,88.845 128.225,93.022 125.524 C 97.779 122.448,99.925 119.201,105.812 106.168 C 111.074 94.521,113.363 88.297,116.845 76.172 C 119.275 67.707,122.623 57.352,123.089 56.855 C 123.281 56.651,123.438 56.221,123.438 55.899 C 123.437 55.578,124.516 52.400,125.834 48.838 L 128.231 42.362 137.260 37.325 C 159.475 24.934,164.386 21.916,169.194 17.702 C 181.800 6.652,174.952 -2.441,156.445 0.774 M45.049 5.071 C 38.461 6.472,36.487 11.050,40.723 15.104 C 43.041 17.323,44.361 18.293,50.353 22.179 C 60.988 29.075,66.648 29.397,77.930 23.745 C 88.493 18.452,88.217 17.279,75.164 11.989 C 71.744 10.603,67.627 8.908,66.016 8.223 C 58.995 5.238,50.363 3.940,45.049 5.071 M338.763 71.777 C 338.898 106.809,338.799 105.479,341.525 109.054 C 344.289 112.677,348.174 114.540,354.085 115.075 L 357.031 115.342 357.031 111.009 L 357.031 106.676 355.566 106.410 C 352.239 105.806,349.616 103.644,348.845 100.867 C 348.584 99.927,348.441 88.973,348.440 69.824 L 348.438 40.234 343.539 40.234 L 338.641 40.234 338.763 71.777 M163.975 61.154 C 160.472 62.003,157.126 64.362,154.639 67.734 L 153.516 69.258 153.516 65.488 L 153.516 61.719 148.630 61.719 L 143.745 61.719 143.845 87.988 L 143.945 114.258 148.730 114.367 L 153.516 114.477 153.520 98.157 C 153.525 80.775,153.611 79.817,155.514 75.881 C 158.328 70.061,164.952 67.288,169.871 69.870 C 170.809 70.363,171.714 70.620,171.881 70.442 C 172.251 70.047,175.841 61.640,175.692 61.518 C 174.662 60.679,166.928 60.438,163.975 61.154 M193.359 61.126 C 188.968 62.115,185.516 63.522,182.488 65.556 C 182.011 65.876,185.515 73.828,186.133 73.828 C 186.237 73.828,187.121 73.218,188.098 72.472 C 191.563 69.827,199.211 68.571,203.855 69.885 C 207.516 70.921,210.547 75.575,210.547 80.163 L 210.547 81.564 208.727 81.016 C 196.367 77.297,180.381 86.593,179.441 98.047 C 178.175 113.471,197.889 121.242,209.989 110.088 L 211.705 108.507 212.064 109.451 C 213.358 112.854,217.961 115.213,223.340 115.231 C 224.755 115.236,224.650 110.695,223.204 109.345 C 220.567 106.884,220.541 106.719,220.263 90.820 C 219.951 72.969,219.387 70.310,214.981 65.905 C 210.689 61.615,200.845 59.439,193.359 61.126 M300.489 60.953 C 280.644 64.520,272.863 93.199,287.697 108.097 C 295.601 116.034,309.037 117.564,320.117 111.788 C 324.477 109.515,324.377 110.057,321.381 104.972 L 319.823 102.327 318.499 103.336 C 306.785 112.271,290.318 104.694,290.241 90.332 L 290.234 89.063 308.997 89.063 C 326.498 89.063,327.778 89.017,328.040 88.379 C 328.745 86.662,328.313 77.600,327.402 75.000 C 323.837 64.823,312.342 58.823,300.489 60.953 M388.371 61.152 C 384.618 62.163,382.153 63.793,379.678 66.901 L 378.125 68.852 378.125 65.285 L 378.125 61.719 373.242 61.719 L 368.359 61.719 368.359 88.098 L 368.359 114.477 373.145 114.367 L 377.930 114.258 378.125 96.875 C 378.350 76.863,378.331 76.974,382.119 72.830 C 385.753 68.853,390.047 67.807,394.259 69.873 C 395.290 70.379,396.204 70.723,396.289 70.638 C 396.564 70.363,400.000 62.172,400.000 61.791 C 400.000 60.748,391.588 60.286,388.371 61.152 M228.694 62.012 C 228.839 62.388,233.911 74.515,239.967 88.961 L 250.977 115.226 252.344 115.222 L 253.711 115.219 265.141 88.566 C 271.427 73.908,276.569 61.777,276.567 61.609 C 276.564 61.442,274.326 61.354,271.593 61.414 L 266.624 61.523 259.952 78.838 C 251.927 99.660,252.769 98.113,251.438 94.494 C 250.853 92.903,247.805 84.790,244.665 76.465 L 238.956 61.328 233.694 61.328 C 228.843 61.328,228.453 61.382,228.694 62.012 M312.002 70.327 C 316.099 72.343,319.141 77.277,319.141 81.908 C 319.141 81.976,312.725 82.031,304.883 82.031 C 288.722 82.031,290.035 82.354,291.275 78.683 C 294.107 70.296,303.909 66.345,312.002 70.327 M207.601 87.938 L 210.547 88.376 210.547 94.799 L 210.547 101.223 208.666 103.053 C 202.723 108.834,192.370 109.002,189.807 103.359 C 186.899 96.957,192.549 89.155,200.977 87.935 C 204.300 87.453,204.342 87.453,207.601 87.938 " stroke="none" fill="#FFFFFF" fill-rule="evenodd"></path></g></svg>